<?xml version="1.0" encoding="UTF-8"?>
<svg id="Layer_1" data-name="Layer 1" xmlns="http://www.w3.org/2000/svg" version="1.1" viewBox="0 0 500 500">
  <defs>
    <style>
      .cls-1 {
        fill: none;
        stroke: #efe00e;
        stroke-miterlimit: 10;
        stroke-width: 12px;
      }
    </style>
  </defs>
  <polygon class="cls-1" points="298.6 169.1 201.6 169.1 153 249.7 201.6 330.5 298.6 330.5 347.2 249.7 298.6 169.1"/>
  <polygon class="cls-1" points="153.3 88.3 56.2 88.3 7.7 169.1 56.2 249.7 153.3 249.7 201.9 169.1 153.3 88.3"/>
  <polygon class="cls-1" points="298.6 7.7 201.6 7.7 153 88.3 201.6 169.1 298.6 169.1 347.2 88.3 298.6 7.7"/>
  <polygon class="cls-1" points="443.3 88.3 346.2 88.3 297.6 169.1 346.2 249.7 443.3 249.7 491.8 169.1 443.3 88.3"/>
  <polygon class="cls-1" points="443.3 249.7 346.2 249.7 297.6 330.5 346.2 411.1 443.3 411.1 491.8 330.5 443.3 249.7"/>
  <polygon class="cls-1" points="298.3 330.5 201.1 330.5 152.7 411.1 201.1 491.8 298.3 491.8 346.9 411.1 298.3 330.5"/>
  <polygon class="cls-1" points="153.3 249.7 56.2 249.7 7.7 330.5 56.2 411.1 153.3 411.1 201.9 330.5 153.3 249.7"/>
</svg>