<?xml version="1.0" encoding="UTF-8"?>
<svg id="Layer_1" data-name="Layer 1" xmlns="http://www.w3.org/2000/svg" version="1.1" viewBox="0 0 2000 498.4">
  <defs>
    <style>
      .cls-1, .cls-2, .cls-3, .cls-4, .cls-5 {
        isolation: isolate;
      }

      .cls-6 {
        fill: none;
        stroke: #ceb66a;
        stroke-miterlimit: 10;
        stroke-width: 4px;
      }

      .cls-2 {
        fill: #fff;
        letter-spacing: .2em;
      }

      .cls-2, .cls-4, .cls-5 {
        font-family: ArialMT, Arial;
        font-size: 130.6px;
      }

      .cls-3 {
        font-family: Arial-BoldMT, Arial;
        font-size: 317.5px;
        font-weight: 700;
      }

      .cls-3, .cls-5 {
        fill: #ffda00;
      }

      .cls-4 {
        fill: #231f20;
        letter-spacing: .1em;
      }

      .cls-5 {
        letter-spacing: .1em;
      }
    </style>
  </defs>
  <g>
    <polygon class="cls-6" points="294.4 166.4 199.3 166.4 151.7 248.8 199.3 331.2 294.4 331.2 342 248.8 294.4 166.4"/>
    <polygon class="cls-6" points="152 84 56.8 84 9.3 166.4 56.8 248.8 152 248.8 199.6 166.4 152 84"/>
    <polygon class="cls-6" points="294.4 1.6 199.3 1.6 151.7 84 199.3 166.4 294.4 166.4 342 84 294.4 1.6"/>
    <polygon class="cls-6" points="436.2 84 341 84 293.4 166.4 341 248.8 436.2 248.8 483.7 166.4 436.2 84"/>
    <polygon class="cls-6" points="436.2 248.8 341 248.8 293.4 331.2 341 413.6 436.2 413.6 483.7 331.2 436.2 248.8"/>
    <polygon class="cls-6" points="294.1 331.2 198.9 331.2 151.3 413.6 198.9 496 294.1 496 341.7 413.6 294.1 331.2"/>
    <polygon class="cls-6" points="152 248.8 56.8 248.8 9.3 331.2 56.8 413.6 152 413.6 199.6 331.2 152 248.8"/>
  </g>
  <g class="cls-1">
    <text class="cls-3" transform="translate(538.6 286.2)"><tspan x="0" y="0">СОТА</tspan></text>
  </g>
  <g class="cls-1">
    <text class="cls-5" transform="translate(575 443.6)"><tspan x="0" y="0">СТУДІЯ</tspan></text>
    <text class="cls-4" transform="translate(1168.9 443.6)"><tspan x="0" y="0"> </tspan></text>
    <text class="cls-2" transform="translate(1224.8 443.6)"><tspan x="0" y="0">ТЕХНІКИ</tspan></text>
  </g>
</svg>